<?xml version="1.0" standalone="no"?>
<!DOCTYPE svg PUBLIC "-//W3C//DTD SVG 20010904//EN"
 "http://www.w3.org/TR/2001/REC-SVG-20010904/DTD/svg10.dtd">
<svg version="1.0" xmlns="http://www.w3.org/2000/svg"
 width="260.000000pt" height="260.000000pt" viewBox="0 0 260.000000 260.000000"
 preserveAspectRatio="xMidYMid meet">
<metadata>
Created by potrace 1.14, written by Peter Selinger 2001-2017
</metadata>
<g transform="translate(0.000000,260.000000) scale(0.100000,-0.100000)"
fill="#000000" stroke="none">
<path d="M1257 2558 c-91 -113 -113 -199 -73 -281 17 -33 96 -107 116 -107 4
0 27 15 52 34 81 62 105 163 60 253 -25 47 -99 143 -112 143 -5 0 -24 -19 -43
-42z m29 -173 c0 -175 -3 -186 -43 -142 -49 53 -64 116 -43 172 9 23 78 135
84 135 1 0 2 -74 2 -165z m76 99 c48 -72 57 -127 30 -186 -11 -25 -33 -54 -49
-66 l-30 -21 0 164 c0 91 3 165 6 165 4 0 23 -25 43 -56z"/>
<path d="M976 2404 c-10 -26 19 -52 42 -38 9 6 17 20 17 30 0 26 -50 32 -59 8z"/>
<path d="M1566 2404 c-7 -19 10 -44 29 -44 19 0 36 25 29 44 -3 9 -16 16 -29
16 -13 0 -26 -7 -29 -16z"/>
<path d="M641 2373 c-5 -10 -12 -38 -15 -63 -4 -25 -9 -58 -12 -75 -31 -209
-31 -410 1 -535 6 -24 3 -27 -44 -39 -107 -27 -275 -123 -462 -263 -65 -48
-109 -88 -109 -98 0 -24 210 -178 356 -263 65 -37 149 -77 188 -89 39 -12 72
-23 73 -23 2 -1 -4 -30 -11 -66 -26 -119 -13 -418 24 -584 12 -56 27 -71 50
-50 8 7 52 27 97 44 184 68 364 162 458 240 27 23 53 41 57 41 4 0 22 -14 40
-31 48 -45 149 -109 258 -164 117 -59 339 -145 356 -138 15 6 21 22 29 83 3
25 10 70 16 100 25 138 22 402 -7 507 -5 17 -2 23 10 23 36 0 181 65 283 126
141 86 323 223 323 244 0 21 -190 164 -328 247 -98 59 -243 123 -277 123 -11
0 -15 6 -11 18 25 86 33 376 12 482 -3 14 -10 61 -16 105 -14 93 -23 115 -48
110 -9 -2 -65 -22 -123 -45 -194 -74 -384 -176 -478 -257 l-34 -29 -31 29
c-82 77 -294 190 -500 267 -60 22 -110 40 -112 40 -2 0 -7 -8 -13 -17z m147
-89 l33 -13 -23 -35 -23 -34 -18 26 c-10 15 -25 40 -33 55 -15 28 -15 29 8 22
13 -4 38 -13 56 -21z m1081 -11 c-46 -77 -42 -75 -67 -37 l-23 35 33 13 c82
33 84 33 57 -11z m-1124 -81 c-1 -1 -19 -3 -41 -5 -38 -2 -39 -1 -36 28 2 17
5 39 7 50 2 11 4 24 4 30 1 5 16 -15 34 -45 19 -30 33 -56 32 -58z m1187 33
l3 -39 -43 0 c-23 -1 -41 1 -40 4 2 3 16 29 33 57 32 57 40 54 47 -22z m-1009
2 l68 -32 -27 -35 c-14 -19 -37 -59 -51 -87 -13 -29 -26 -53 -28 -53 -7 0 -85
140 -85 154 0 17 41 86 50 85 3 0 36 -14 73 -32z m847 11 c37 -45 35 -71 -11
-148 l-42 -71 -32 59 c-17 32 -42 72 -54 88 l-23 29 69 32 c37 18 70 32 71 33
2 0 12 -10 22 -22z m-684 -95 l63 -37 -28 -35 c-45 -56 -94 -160 -106 -222 -2
-12 -6 -24 -8 -26 -3 -2 -25 31 -51 74 -49 84 -51 105 -19 167 22 42 73 116
80 116 3 0 35 -17 69 -37z m527 2 c43 -53 80 -141 71 -167 -9 -30 -84 -158
-93 -158 -3 0 -7 13 -8 30 -3 42 -40 125 -85 193 -21 32 -36 62 -33 68 6 9
105 69 115 69 3 0 18 -16 33 -35z m-835 -14 c15 -16 40 -53 56 -81 l29 -53
-28 7 c-36 9 -161 9 -176 1 -8 -5 -9 15 -6 71 3 44 6 80 6 82 1 1 22 2 47 2
38 0 51 -5 72 -29z m1164 17 c2 -7 5 -42 7 -78 l3 -65 -106 0 -105 0 26 45
c56 98 69 110 122 110 30 0 50 -5 53 -12z m-723 -96 l44 -38 -41 -74 c-52 -94
-75 -190 -70 -292 2 -42 0 -74 -3 -70 -4 4 -30 48 -59 97 -48 84 -51 94 -48
145 2 32 16 81 31 115 27 59 87 155 97 155 3 0 25 -17 49 -38z m293 -88 c28
-57 41 -98 45 -140 4 -57 3 -62 -47 -149 -29 -49 -55 -93 -59 -97 -3 -4 -5 33
-4 81 2 126 -21 207 -98 329 -13 22 -12 26 31 63 l44 38 24 -22 c13 -12 41
-58 64 -103z m-654 7 c19 -8 45 -40 79 -95 l51 -83 -51 20 c-41 16 -77 20
-172 21 l-120 1 0 70 c0 70 0 70 30 75 47 9 152 4 183 -9z m1091 5 c6 -4 7
-85 2 -131 -1 -6 -48 -10 -119 -11 -80 -1 -131 -6 -162 -17 -24 -9 -45 -15
-47 -13 -1 1 18 37 44 79 45 73 64 89 118 100 24 4 154 -1 164 -7z m-575 -167
c34 -121 22 -255 -36 -381 -37 -81 -43 -79 -87 25 -32 77 -50 182 -45 256 5
66 39 169 70 215 l26 38 28 -49 c16 -27 35 -74 44 -104z m-422 -31 c59 -27 73
-44 154 -183 l29 -49 -35 26 c-90 67 -210 107 -339 113 -42 2 -79 4 -82 4 -6
1 -12 24 -25 90 -6 30 10 33 125 29 99 -3 125 -8 173 -30z m993 7 c1 -11 -4
-38 -11 -59 l-11 -40 -74 -2 c-138 -4 -253 -40 -346 -111 -18 -13 -33 -22 -33
-19 0 3 26 47 58 98 83 133 134 158 322 155 88 -2 95 -4 95 -22z m-1118 -159
c108 -12 235 -79 326 -172 47 -49 87 -102 87 -116 0 -13 -91 -9 -160 8 -142
33 -270 118 -343 226 l-35 53 26 6 c15 3 32 4 37 3 6 -2 33 -5 62 -8z m1060 5
c20 -2 -26 -71 -92 -137 -93 -94 -257 -163 -387 -164 -53 0 -56 3 -30 41 88
134 251 238 396 255 28 4 52 7 53 8 2 2 13 2 25 0 13 -1 28 -3 35 -3z m-1212
-63 c43 -74 144 -170 220 -210 36 -18 65 -36 65 -40 0 -10 -203 -1 -233 11
-41 16 -118 97 -158 166 -54 92 -54 92 -6 109 69 24 79 21 112 -36z m1359 36
c26 -9 46 -19 44 -23 -49 -107 -122 -201 -184 -237 -44 -26 -56 -28 -166 -30
l-119 -2 79 39 c90 43 188 134 237 217 17 29 37 52 46 52 8 0 37 -7 63 -16z
m-1519 -71 c34 -67 78 -127 127 -175 l48 -47 -100 3 c-90 3 -103 5 -126 27
-31 28 -67 83 -87 132 l-15 35 56 31 c32 17 62 31 67 31 6 0 19 -17 30 -37z
m1667 4 l57 -32 -30 -62 c-17 -33 -46 -76 -65 -94 -34 -33 -36 -33 -134 -35
l-100 -2 49 47 c45 43 96 115 130 184 8 15 19 27 25 27 6 0 37 -15 68 -33z
m-1817 -103 c15 -31 40 -71 56 -89 l29 -33 -83 3 c-45 1 -89 3 -98 4 -13 1
-59 67 -59 84 0 4 120 87 126 87 1 0 14 -25 29 -56z m1988 -2 c20 -14 37 -27
37 -29 0 -2 -6 -16 -14 -32 -26 -49 -42 -56 -137 -57 l-88 -1 28 33 c16 17 41
57 56 88 l28 57 26 -17 c14 -10 43 -28 64 -42z m-2145 -85 l19 -34 -68 0 c-38
0 -69 2 -69 3 0 5 84 64 91 64 4 0 16 -15 27 -33z m2260 2 c23 -17 42 -32 42
-33 0 -1 -31 -3 -69 -3 l-68 0 19 34 c11 18 23 33 27 33 4 0 26 -14 49 -31z
m-2248 -66 c0 -2 -8 -18 -18 -37 l-18 -34 -40 30 c-60 45 -60 46 10 45 36 0
66 -2 66 -4z m192 -43 c-19 -25 -44 -64 -54 -88 l-20 -43 -26 17 c-80 52 -102
67 -102 71 0 2 7 17 15 33 25 49 49 58 139 57 l83 -1 -35 -46z m230 1 c-47
-44 -108 -129 -133 -184 -7 -15 -17 -27 -23 -27 -6 0 -37 15 -68 33 l-57 32
23 51 c13 28 44 72 67 96 l44 45 97 0 98 0 -48 -46z m288 18 c-108 -51 -198
-132 -256 -230 -26 -45 -32 -50 -59 -46 -17 3 -45 11 -63 18 l-32 14 24 47
c51 100 129 187 194 213 12 6 75 11 139 12 l116 2 -63 -30z m956 4 c50 -26
100 -81 146 -159 53 -92 53 -90 1 -108 -62 -21 -78 -20 -90 7 -22 48 -105 146
-156 185 -29 22 -80 53 -113 70 l-59 30 115 -2 c94 -2 122 -6 156 -23z m258
-12 c19 -18 48 -61 65 -94 l30 -62 -57 -32 c-31 -18 -61 -33 -67 -33 -5 0 -28
33 -50 72 -22 40 -65 98 -96 129 l-56 58 99 -3 c96 -3 99 -3 132 -35z m200 20
c15 -13 46 -62 46 -74 0 -4 -22 -19 -101 -71 l-26 -17 -28 57 c-15 31 -41 71
-56 89 l-29 33 88 -1 c60 -2 95 -7 106 -16z m166 13 c0 -5 -85 -64 -92 -64 -7
0 -38 52 -38 64 0 2 29 4 65 3 36 -1 65 -2 65 -3z m-1270 -23 c0 -15 -68 -100
-117 -146 -88 -81 -228 -141 -340 -145 -88 -3 -85 -5 -61 38 83 142 290 258
466 261 28 1 52 -3 52 -8z m280 -7 c146 -34 293 -135 358 -246 19 -34 20 -38
4 -39 -186 -10 -355 71 -484 232 -26 33 -48 62 -48 65 0 10 110 3 170 -12z
m-130 -185 c36 -131 13 -298 -55 -401 -14 -21 -27 -38 -29 -38 -11 0 -66 112
-81 165 -39 133 -13 310 61 424 l16 23 34 -50 c18 -28 43 -83 54 -123z m152
-203 c26 -51 20 -122 -17 -204 -27 -59 -85 -152 -96 -152 -10 0 -99 81 -99 90
0 5 14 32 32 59 48 78 76 187 72 287 -1 46 -5 94 -9 106 -7 24 82 -117 117
-186z m-438 137 c-78 -136 -93 -154 -151 -180 -47 -22 -75 -27 -174 -31 -136
-5 -136 -5 -116 72 l13 49 81 3 c129 4 267 49 343 113 14 11 27 20 28 21 2 0
-8 -21 -24 -47z m484 -27 c73 -37 161 -58 256 -60 l80 -2 14 -54 c11 -44 11
-55 0 -62 -13 -9 -202 -5 -244 5 -12 3 -40 15 -63 27 -41 20 -65 51 -137 175
l-29 49 35 -26 c19 -14 59 -38 88 -52z m-432 -54 c0 -122 18 -185 81 -286 l36
-60 -44 -38 c-24 -21 -47 -38 -50 -38 -11 0 -70 91 -100 154 -39 83 -48 160
-24 207 18 35 96 169 99 169 0 0 1 -48 2 -108z m-202 -169 c-52 -91 -69 -113
-94 -122 -35 -14 -127 -21 -175 -13 l-40 7 0 55 c-1 90 -8 85 123 86 79 1 130
6 157 17 58 23 60 22 29 -30z m766 22 c36 -8 102 -13 147 -12 51 2 84 -1 86
-8 1 -5 3 -37 2 -70 l0 -60 -39 -6 c-55 -9 -139 -4 -173 10 -28 12 -44 32 -98
125 -26 44 -27 49 -10 42 11 -4 49 -14 85 -21z m-36 -158 c5 -29 -39 -125 -77
-171 l-24 -28 -62 33 c-33 19 -61 37 -61 42 0 4 17 33 38 65 44 65 77 139 87
195 l7 38 44 -75 c24 -40 45 -85 48 -99z m-667 140 c-10 -27 46 -148 105 -231
33 -46 31 -49 -46 -92 l-50 -27 -29 34 c-44 51 -90 154 -82 181 13 42 87 158
97 152 5 -3 7 -11 5 -17z m-185 -211 c-46 -83 -73 -106 -126 -106 -25 0 -46 1
-46 3 -1 1 -3 29 -6 62 -3 33 -6 67 -8 75 -2 13 15 15 105 15 l107 0 -26 -49z
m1122 34 c-2 -8 -5 -42 -8 -75 -3 -33 -5 -61 -5 -62 -1 -2 -23 -3 -50 -3 -55
0 -67 11 -124 110 l-26 45 108 0 c91 0 107 -2 105 -15z m-980 -154 l25 -34
-69 -31 c-39 -17 -72 -31 -75 -31 -7 0 -55 86 -55 99 0 7 19 44 42 82 l41 70
33 -61 c18 -33 44 -76 58 -94z m785 85 c22 -38 41 -77 41 -85 0 -17 -41 -86
-50 -85 -3 0 -35 14 -73 32 l-68 32 34 46 c18 26 41 65 52 88 10 23 19 41 20
41 2 0 21 -31 44 -69z m-1020 -107 c-1 -5 -14 -31 -29 -58 l-29 -49 -5 34 c-6
36 -9 71 -7 79 2 10 71 4 70 -6z m1193 -21 c-2 -17 -6 -43 -10 -57 -7 -25 -9
-23 -39 32 l-32 57 42 0 c41 -1 42 -1 39 -32z m-1112 -61 c0 -9 -110 -56 -116
-49 -2 1 13 30 33 64 l37 62 23 -34 c13 -19 23 -38 23 -43z m1061 -30 c-4 -1
-29 6 -55 17 l-47 21 23 34 23 35 32 -52 c18 -29 28 -53 24 -55z"/>
<path d="M434 2105 c-9 -23 3 -45 25 -45 26 0 45 32 29 48 -17 17 -48 15 -54
-3z"/>
<path d="M2111 2102 c-8 -15 -7 -23 4 -32 23 -19 50 -8 50 20 0 32 -39 41 -54
12z"/>
<path d="M170 1963 c-19 -3 -39 -8 -43 -12 -12 -12 60 -154 96 -192 69 -70
165 -86 255 -42 43 21 47 42 20 117 -41 117 -130 152 -328 129z m220 -38 c38
-20 77 -69 89 -112 6 -20 9 -39 7 -41 -3 -2 -72 34 -155 80 -148 82 -149 83
-113 88 55 9 141 1 172 -15z m-28 -121 c60 -32 104 -62 99 -67 -5 -5 -35 -11
-68 -14 -69 -6 -128 17 -161 64 -21 30 -62 108 -62 119 0 3 19 -5 43 -18 23
-14 90 -51 149 -84z"/>
<path d="M2216 1956 c-73 -27 -124 -100 -129 -186 -2 -32 2 -37 38 -55 27 -13
60 -20 100 -19 101 0 155 42 216 168 24 48 35 84 30 89 -17 17 -212 19 -255 3z
m200 -19 c3 -3 -274 -157 -296 -165 -13 -5 6 66 26 96 24 37 42 50 93 65 37
11 167 14 177 4z m-9 -84 c-42 -82 -95 -127 -157 -134 -31 -3 -108 10 -114 20
-4 6 55 41 259 152 17 9 31 15 33 14 2 -2 -8 -25 -21 -52z"/>
<path d="M140 1615 c-10 -12 -10 -18 0 -30 24 -29 66 -11 55 24 -7 24 -37 28
-55 6z"/>
<path d="M2405 1620 c-11 -17 5 -50 24 -50 28 0 46 26 31 45 -14 17 -46 20
-55 5z"/>
<path d="M140 1015 c-15 -19 3 -45 31 -45 23 0 32 15 24 40 -7 24 -37 26 -55
5z"/>
<path d="M2412 1021 c-20 -12 -10 -45 14 -49 29 -4 51 23 34 43 -14 17 -29 19
-48 6z"/>
<path d="M294 891 c-23 -10 -53 -32 -69 -47 -37 -39 -108 -185 -96 -197 6 -6
55 -12 111 -15 115 -5 168 9 215 58 29 30 63 115 61 153 -2 52 -147 83 -222
48z m166 -27 c8 -8 -280 -177 -288 -169 -6 5 40 89 66 120 42 51 79 66 150 61
35 -2 68 -8 72 -12z m26 -46 c-3 -7 -7 -25 -10 -40 -8 -34 -50 -84 -87 -104
-27 -13 -92 -19 -179 -15 -32 1 -22 8 115 86 83 46 153 84 157 85 4 0 6 -6 4
-12z"/>
<path d="M2146 894 c-60 -22 -67 -31 -60 -78 14 -89 69 -156 147 -177 47 -13
224 -6 239 9 12 12 -60 156 -98 196 -57 60 -147 80 -228 50z m169 -36 c17 -9
40 -29 51 -45 25 -34 67 -114 62 -118 -2 -2 -70 33 -150 78 -81 45 -144 85
-140 89 13 13 86 24 117 18 17 -4 44 -14 60 -22z m-41 -113 l146 -80 -42 -6
c-144 -20 -235 30 -262 144 -4 17 -3 28 3 25 5 -1 75 -39 155 -83z"/>
<path d="M434 525 c-9 -23 3 -45 25 -45 26 0 45 32 29 48 -17 17 -48 15 -54
-3z"/>
<path d="M2111 521 c-13 -23 8 -45 36 -39 22 4 30 38 11 49 -21 14 -37 10 -47
-10z"/>
<path d="M1248 396 c-86 -66 -106 -158 -56 -255 16 -32 47 -78 69 -102 l39
-44 36 40 c93 105 121 204 80 286 -20 39 -94 109 -115 109 -5 0 -28 -15 -53
-34z m38 -177 c0 -166 -1 -170 -18 -147 -94 121 -100 223 -16 293 16 14 31 25
32 25 1 0 2 -77 2 -171z m91 114 c23 -30 28 -46 28 -93 0 -50 -5 -64 -44 -123
-24 -37 -44 -67 -45 -67 -2 0 -3 76 -3 169 0 160 1 169 18 160 10 -5 31 -26
46 -46z"/>
<path d="M981 226 c-16 -20 -3 -46 24 -46 13 0 26 7 29 16 7 19 -10 44 -29 44
-7 0 -18 -6 -24 -14z"/>
<path d="M1572 228 c-16 -16 -15 -23 3 -42 28 -27 69 10 44 40 -14 17 -31 18
-47 2z"/>
</g>
</svg>
